<?xml version="1.0" encoding="UTF-8" standalone="no" ?>
<!DOCTYPE svg PUBLIC "-//W3C//DTD SVG 1.1//EN" "http://www.w3.org/Graphics/SVG/1.1/DTD/svg11.dtd">
<svg xmlns="http://www.w3.org/2000/svg" xmlns:xlink="http://www.w3.org/1999/xlink" version="1.1" width="50" height="160" viewBox="0 0 80 360" xml:space="preserve">
<desc>Created with Fabric.js 4.6.0</desc>
<defs>
</defs>
<g transform="matrix(1.51 0 0 3.51 50 290)" id="v9v1k9MotGAKmcIXd4kSv"  >
<path style="stroke: rgb(42,78,65); stroke-width: 0; stroke-dasharray: none; stroke-linecap: butt; stroke-dashoffset: 0; stroke-linejoin: miter; stroke-miterlimit: 4; fill: rgb(248,147,31); fill-rule: nonzero; opacity: 1;" vector-effect="non-scaling-stroke"  transform=" translate(0, 0)" d="M -19.92032 -19.92032 L 19.92032 -19.92032 L 19.92032 19.92032 L -19.92032 19.92032 z" stroke-linecap="round" />
</g>
<g transform="matrix(1.51 0 0 3.51 50 70)" id="JXK1S0nF1XlfnlKENExwV"  >
<path style="stroke: rgb(42,78,65); stroke-width: 0; stroke-dasharray: none; stroke-linecap: butt; stroke-dashoffset: 0; stroke-linejoin: miter; stroke-miterlimit: 4; fill: rgb(253,218,2); fill-rule: nonzero; opacity: 1;" vector-effect="non-scaling-stroke"  transform=" translate(0, 0)" d="M -19.92032 -19.92032 L 19.92032 -19.92032 L 19.92032 19.92032 L -19.92032 19.92032 z" stroke-linecap="round" />
</g>
<g transform="matrix(1 0 0 1 40 160)" id="yVKulwK29zVxoKRu2ldXF"  >
<path style="stroke: rgb(0,0,0); stroke-width: 0; stroke-dasharray: none; stroke-linecap: butt; stroke-dashoffset: 0; stroke-linejoin: miter; stroke-miterlimit: 4; fill: rgb(248,147,31); fill-rule: nonzero; opacity: 1;" vector-effect="non-scaling-stroke"  transform=" translate(0, 0)" d="M -20 -20 L -40 20 L 20 20 L 40 -20 z" stroke-linecap="round" />
</g>
<g transform="matrix(1 0 0 -1 40 200)" id="IEA2-MfMzs_NmxRmxDRnH"  >
<path style="stroke: rgb(0,0,0); stroke-width: 0; stroke-dasharray: none; stroke-linecap: butt; stroke-dashoffset: 0; stroke-linejoin: miter; stroke-miterlimit: 4; fill: rgb(253,218,2); fill-rule: nonzero; opacity: 1;" vector-effect="non-scaling-stroke"  transform=" translate(0, 0)" d="M -20 -20 L -40 20 L 20 20 L 40 -20 z" stroke-linecap="round" />
</g>
</svg>